<?xml version="1.0" standalone="no"?>
<!DOCTYPE svg PUBLIC "-//W3C//DTD SVG 20010904//EN"
 "http://www.w3.org/TR/2001/REC-SVG-20010904/DTD/svg10.dtd">
<svg version="1.0" xmlns="http://www.w3.org/2000/svg"
 width="1024.000000pt" height="768.000000pt" viewBox="0 0 1024.000000 768.000000"
 preserveAspectRatio="xMidYMid meet">

<g transform="translate(0.000000,768.000000) scale(0.100000,-0.100000)"
fill="#000000" stroke="none">
<path d="M9620 7605 l0 -75 90 0 90 0 0 45 0 45 -45 0 c-43 0 -45 1 -45 30 0
29 -2 30 -45 30 l-45 0 0 -75z"/>
<path d="M1000 7635 c0 -34 1 -35 40 -35 39 0 40 1 40 35 0 34 -1 35 -40 35
-39 0 -40 -1 -40 -35z"/>
<path d="M3460 7635 c0 -34 1 -35 40 -35 39 0 40 1 40 35 0 34 -1 35 -40 35
-39 0 -40 -1 -40 -35z"/>
<path d="M6680 7620 l0 -40 45 0 45 0 0 40 0 40 -45 0 -45 0 0 -40z"/>
<path d="M7770 7620 l0 -40 45 0 45 0 0 40 0 40 -45 0 -45 0 0 -40z"/>
<path d="M4470 7500 l0 -90 90 0 90 0 0 45 0 45 -45 0 -45 0 0 45 0 45 -45 0
-45 0 0 -90z"/>
<path d="M1530 7500 l0 -40 45 0 45 0 0 40 0 40 -45 0 -45 0 0 -40z"/>
<path d="M2620 7500 l0 -40 45 0 45 0 0 40 0 40 -45 0 -45 0 0 -40z"/>
<path d="M9808 7437 l-3 -82 37 3 37 4 3 79 3 79 -37 0 -37 0 -3 -83z"/>
<path d="M5250 7440 c0 -40 0 -40 38 -40 37 0 37 0 37 40 0 40 0 40 -37 40
-38 0 -38 0 -38 -40z"/>
<path d="M4658 7317 l-3 -82 37 3 37 4 3 79 3 79 -37 0 -37 0 -3 -83z"/>
<path d="M100 7320 c0 -40 0 -40 38 -40 37 0 37 0 37 40 0 40 0 40 -37 40 -38
0 -38 0 -38 -40z"/>
<path d="M5630 7305 l0 -45 45 0 45 0 0 45 0 45 -45 0 -45 0 0 -45z"/>
<path d="M480 7185 l0 -45 45 0 45 0 0 45 0 45 -45 0 -45 0 0 -45z"/>
<path d="M10110 7170 l0 -41 40 3 c39 2 40 3 40 40 0 38 0 38 -40 38 l-40 0 0
-40z"/>
<path d="M90 6875 l0 -45 45 0 45 0 0 45 0 45 -45 0 -45 0 0 -45z"/>
<path d="M9940 6690 l0 -40 40 0 40 0 0 40 0 40 -40 0 -40 0 0 -40z"/>
<path d="M2020 6570 l0 -70 -60 0 -60 0 0 -70 0 -70 135 0 135 0 0 70 0 70
200 0 200 0 0 -70 0 -70 -70 0 -70 0 0 -70 0 -70 -135 0 -135 0 0 -60 0 -60
-70 0 -70 0 0 -75 0 -75 -60 0 -60 0 0 -130 0 -130 470 0 470 0 0 70 0 70
-270 0 -270 0 0 60 0 60 135 0 135 0 0 75 0 75 70 0 70 0 0 60 0 60 65 0 65 0
0 135 0 135 -70 0 -70 0 0 75 0 75 -340 0 -340 0 0 -70z"/>
<path d="M3350 6570 l0 -70 -70 0 -70 0 0 -65 0 -65 -70 0 -70 0 0 -70 0 -70
-60 0 -60 0 0 -140 0 -140 270 0 270 0 0 -130 0 -130 135 0 135 0 0 130 0 130
65 0 65 0 0 70 0 70 -70 0 -70 0 0 275 0 275 -200 0 -200 0 0 -70z m140 -340
l0 -140 -140 0 -140 0 0 70 0 70 65 0 65 0 0 70 0 70 75 0 75 0 0 -140z"/>
<path d="M4240 6165 l0 -475 135 0 135 0 0 200 0 200 205 0 205 0 0 -200 0
-200 130 0 130 0 0 475 0 475 -135 0 -135 0 0 -205 0 -205 -205 0 -205 0 0
205 0 205 -130 0 -130 0 0 -475z"/>
<path d="M5410 6570 l0 -70 -60 0 -60 0 0 -340 0 -340 65 0 65 0 0 -65 0 -65
340 0 340 0 0 70 0 70 65 0 65 0 0 335 0 335 -70 0 -70 0 0 70 0 70 -340 0
-340 0 0 -70z m550 -405 l0 -335 -205 0 -205 0 0 335 0 335 205 0 205 0 0
-335z"/>
<path d="M6330 6230 l0 -410 65 0 65 0 0 -65 0 -65 340 0 340 0 0 70 0 70 65
0 65 0 0 405 0 405 -135 0 -135 0 0 -405 0 -405 -205 0 -205 0 0 405 0 405
-130 0 -130 0 0 -410z"/>
<path d="M7380 6165 l0 -475 130 0 130 0 0 130 0 130 75 0 75 0 0 -65 0 -65
65 0 65 0 0 -65 0 -65 200 0 200 0 0 70 0 70 -70 0 -70 0 0 65 0 65 -65 0 -65
0 0 65 0 65 135 0 135 0 0 205 0 205 -70 0 -70 0 0 70 0 70 -400 0 -400 0 0
-475z m670 200 l0 -135 -65 0 -65 0 0 -70 0 -70 -140 0 -140 0 0 205 0 205
205 0 205 0 0 -135z"/>
<path d="M1630 2135 l0 -25 -119 0 c-114 0 -119 -1 -114 -20 5 -19 0 -20 -66
-20 -69 0 -71 -1 -71 -25 0 -20 -5 -25 -25 -25 -20 0 -25 -5 -25 -25 0 -18 -5
-25 -20 -25 -13 0 -20 -7 -20 -20 0 -15 -7 -20 -25 -20 -18 0 -25 -5 -25 -20
0 -17 7 -20 45 -20 38 0 45 3 45 20 0 18 7 20 64 20 59 0 65 2 68 23 3 21 7
22 121 25 l117 3 0 -26 c0 -20 5 -25 25 -25 23 0 25 -4 25 -45 0 -41 -2 -45
-24 -45 -22 0 -25 -5 -28 -47 -2 -37 -7 -48 -23 -53 -11 -3 -20 -12 -20 -20 0
-8 -10 -16 -22 -18 -14 -2 -23 -11 -25 -25 -2 -18 -11 -23 -48 -27 l-45 -5 0
-40 c0 -34 -3 -40 -22 -43 -19 -3 -23 -10 -23 -42 0 -32 4 -39 23 -42 15 -2
22 -10 21 -25 0 -13 -1 -54 -2 -93 -2 -63 -4 -70 -22 -70 -19 0 -20 -7 -20
-139 0 -137 0 -140 -22 -143 -22 -3 -23 -7 -24 -113 -2 -104 -3 -110 -23 -113
-20 -3 -21 -9 -21 -138 l0 -134 -25 0 -25 0 0 -120 0 -120 -25 0 c-20 0 -25 5
-25 25 0 18 -5 25 -20 25 -15 0 -20 -7 -20 -25 0 -19 -5 -25 -22 -25 -22 0
-23 -2 -20 -90 3 -81 5 -90 23 -90 16 0 19 -7 19 -45 l0 -45 348 2 347 3 5
160 6 160 2 -157 2 -158 235 0 235 0 0 226 c0 217 1 226 20 231 18 5 20 14 20
84 0 77 -1 79 -25 79 -13 0 -29 -8 -34 -17 -9 -16 -10 -16 -11 5 0 19 5 22 40
22 l40 0 0 -90 c0 -83 -1 -90 -20 -90 -19 0 -20 -7 -20 -230 l0 -230 140 0
140 0 0 70 c0 62 2 70 19 70 13 0 21 8 23 23 2 14 11 23 26 25 22 3 22 5 22
163 l0 159 -25 0 c-25 0 -25 1 -25 90 0 83 -1 90 -20 90 -20 0 -20 7 -20 275
l0 275 -25 0 c-24 0 -25 2 -25 70 0 69 -1 70 -26 70 -21 0 -25 4 -22 23 2 14
11 23 26 25 19 3 22 9 22 48 0 41 -2 44 -26 44 -21 0 -25 4 -21 20 4 16 0 20
-19 20 -19 0 -24 5 -24 25 0 20 -5 25 -25 25 -23 0 -25 4 -25 45 0 38 -3 45
-20 45 -18 0 -20 7 -20 70 0 68 -1 70 -25 70 -18 0 -25 5 -25 20 0 13 -7 20
-20 20 -15 0 -20 7 -20 25 0 20 -5 25 -25 25 -18 0 -25 5 -25 20 0 15 -7 20
-25 20 -20 0 -25 5 -25 25 0 18 -5 25 -20 25 -15 0 -20 7 -20 25 0 23 -4 25
-45 25 -38 0 -45 3 -45 20 0 17 -7 20 -50 20 -41 0 -50 -3 -50 -17 0 -14 -9
-18 -40 -18 -31 0 -40 4 -40 18 0 13 9 17 40 17 36 0 40 3 40 25 l0 25 -155 0
-155 0 0 -25z m-142 -87 c-2 -15 -10 -23 -23 -23 -13 0 -21 8 -23 23 -3 18 1
22 23 22 22 0 26 -4 23 -22z m272 2 c0 -15 7 -20 25 -20 21 0 25 -5 25 -30 0
-25 -4 -30 -25 -30 -18 0 -25 -5 -25 -20 0 -15 -7 -20 -25 -20 -18 0 -25 5
-25 20 0 13 -7 20 -20 20 -16 0 -20 7 -20 30 0 23 4 30 20 30 13 0 20 7 20 20
0 15 7 20 25 20 18 0 25 -5 25 -20z m268 -7 c-4 -28 -3 -28 45 -24 l50 3 -5
-29 c-4 -27 -2 -29 25 -25 27 4 29 2 25 -20 -4 -22 -2 -24 25 -20 28 4 29 3
25 -25 -4 -26 -2 -29 19 -25 21 4 23 1 23 -34 0 -56 -9 -81 -31 -87 -26 -7
-26 -57 0 -64 11 -3 21 -15 23 -27 2 -17 10 -21 38 -21 31 0 35 3 38 28 6 51
24 29 20 -26 -3 -53 -3 -53 25 -49 20 3 27 0 27 -12 0 -14 -15 -16 -110 -16
l-110 0 0 45 c0 41 -2 45 -25 45 -20 0 -25 5 -25 25 0 18 -5 25 -20 25 -13 0
-20 7 -20 20 0 11 -7 20 -15 20 -21 0 -19 13 5 28 27 17 28 72 1 79 -11 3 -21
12 -23 22 -3 12 -5 10 -10 -6 -5 -19 -2 -23 18 -23 20 0 24 -5 24 -30 0 -25
-4 -30 -25 -30 -20 0 -24 -5 -22 -22 2 -18 -4 -24 -25 -26 -24 -3 -28 0 -28
22 0 21 -5 26 -26 26 -22 0 -25 4 -22 28 2 19 9 27 23 27 13 0 21 8 23 23 3
16 11 22 30 23 24 2 24 2 5 6 -19 4 -23 11 -23 44 0 35 -3 39 -25 39 -23 0
-25 4 -25 45 l0 45 41 0 c39 0 41 -1 37 -27z m-310 -275 c-2 -15 -11 -24 -25
-26 -15 -2 -23 -10 -23 -23 0 -15 -6 -20 -22 -17 -15 2 -23 10 -23 23 0 13 8
21 23 23 14 2 22 10 22 23 0 14 7 19 26 19 21 0 25 -4 22 -22z m592 -3 c0 -18
-5 -25 -20 -25 -28 0 -25 -28 3 -32 16 -2 23 -11 25 -30 3 -25 0 -28 -27 -28
-26 0 -31 4 -31 25 0 18 -5 25 -20 25 -15 0 -20 7 -20 25 0 18 5 25 20 25 13
0 20 7 20 20 0 15 7 20 25 20 20 0 25 -5 25 -25z m-820 -180 c0 -20 -5 -25
-25 -25 -20 0 -25 5 -25 25 0 20 5 25 25 25 20 0 25 -5 25 -25z m270 -1 c0
-21 -4 -25 -22 -22 -15 2 -24 11 -26 26 -3 18 1 22 22 22 21 0 26 -5 26 -26z
m0 -89 c0 -20 -5 -25 -25 -25 -20 0 -25 5 -25 25 0 20 5 25 25 25 20 0 25 -5
25 -25z m633 15 l97 0 0 -41 c0 -38 -2 -41 -23 -37 -20 4 -23 1 -19 -24 l4
-28 -111 0 c-61 0 -111 4 -111 9 0 39 15 70 36 75 23 6 35 36 14 36 -5 0 -10
-7 -10 -15 0 -8 -9 -15 -20 -15 -15 0 -20 -7 -20 -25 0 -21 -5 -25 -31 -25
-27 0 -30 3 -27 28 2 19 9 28 26 30 15 2 22 10 22 24 0 18 4 20 38 14 20 -3
81 -6 135 -6z m-183 -10 c0 -5 -7 -10 -15 -10 -8 0 -15 5 -15 10 0 6 7 10 15
10 8 0 15 -4 15 -10z m-492 -307 c-2 -39 -6 -47 -20 -45 -13 2 -18 -4 -18 -23
0 -20 -5 -25 -25 -25 -23 0 -25 4 -25 45 0 38 3 45 20 45 15 0 20 7 20 25 0
20 5 25 26 25 24 0 25 -2 22 -47z m132 35 c0 -10 -17 -12 -62 -8 l-63 4 60 7
c33 3 61 6 63 7 1 1 2 -4 2 -10z m468 -35 c-3 -43 -5 -48 -25 -45 -19 3 -23
-2 -23 -23 0 -22 -4 -26 -22 -23 -19 2 -24 10 -26 46 -3 39 -1 42 22 42 21 0
26 5 26 25 0 20 5 25 26 25 24 0 25 -2 22 -47z m132 29 c0 -4 -21 -6 -47 -4
-76 5 -83 10 -15 11 34 0 62 -2 62 -7z m-593 -26 c2 -1 4 -25 5 -52 l3 -49
-53 -1 -52 -1 50 4 c45 4 50 6 50 29 0 19 -5 24 -25 24 -20 0 -25 5 -25 24 0
18 -7 26 -22 29 -13 2 -3 2 22 0 25 -3 46 -6 47 -7z m536 7 c-7 -2 -19 -2 -25
0 -7 3 -2 5 12 5 14 0 19 -2 13 -5z m-46 -80 c-2 -16 -4 -3 -4 27 0 30 2 43 4
28 2 -16 2 -40 0 -55z m107 69 c3 -5 7 -26 9 -48 3 -21 2 -29 0 -16 -3 15 -11
22 -29 22 -19 0 -24 5 -24 25 0 18 5 25 19 25 11 0 22 -4 25 -8z m-562 -87
c-3 -72 -6 -85 -20 -85 -13 0 -14 2 -4 9 10 6 13 29 10 85 -2 46 1 76 7 76 6
0 9 -33 7 -85z m598 0 c0 -82 -1 -85 -22 -84 -19 1 -19 2 -5 6 16 4 18 14 15
84 -2 43 0 79 5 79 4 0 7 -38 7 -85z m-57 -12 c-13 -2 -35 -2 -50 0 -16 2 -5
4 22 4 28 0 40 -2 28 -4z m-775 -66 c12 -3 10 -5 -5 -6 -20 -1 -23 3 -21 37 1
36 1 36 5 5 3 -19 11 -34 21 -36z m600 0 c12 -3 10 -5 -5 -6 -20 -1 -23 3 -21
37 1 36 1 36 5 5 3 -19 11 -34 21 -36z m-493 -47 c62 0 74 3 78 18 4 13 5 11
6 -5 1 -22 -2 -23 -84 -23 -82 0 -85 1 -84 23 1 16 2 18 6 5 4 -15 16 -18 78
-18z m363 8 c-2 -17 3 -24 20 -26 14 -2 22 -10 22 -23 0 -16 7 -19 50 -19 47
0 50 -2 50 -25 0 -18 5 -25 20 -25 13 0 20 -7 20 -20 0 -17 -7 -20 -45 -20
-41 0 -45 -2 -45 -25 l0 -25 -115 0 -115 0 0 25 c0 23 -4 25 -45 25 -38 0 -45
3 -45 19 0 13 8 21 23 23 14 2 23 11 25 26 2 14 10 22 23 22 12 0 19 7 19 20
0 15 7 20 25 20 20 0 25 5 25 25 0 23 4 25 46 25 41 0 45 -2 42 -22z m322 2
c0 -19 -6 -20 -92 -18 l-93 2 88 3 c68 3 87 7 87 18 0 8 2 15 5 15 3 0 5 -9 5
-20z m-600 -375 c0 -23 4 -25 45 -25 38 0 45 -3 45 -20 0 -19 7 -20 145 -20
138 0 145 1 145 20 0 14 6 20 23 19 15 -1 17 -3 6 -6 -10 -2 -19 -13 -22 -24
-5 -18 -15 -19 -152 -19 -137 0 -147 1 -152 19 -4 15 -15 21 -47 23 -34 2 -42
7 -44 26 -3 20 -9 22 -58 22 -53 0 -54 -1 -54 -29 0 -20 6 -31 18 -34 13 -4
11 -5 -5 -6 -20 -1 -23 4 -23 39 l0 40 65 0 c63 0 65 -1 65 -25z m-52 -278
c11 -3 8 -5 -8 -6 l-25 -1 5 112 5 113 3 -107 c2 -91 5 -107 20 -111z"/>
<path d="M1720 2000 c0 -13 7 -20 20 -20 13 0 20 7 20 20 0 13 -7 20 -20 20
-13 0 -20 -7 -20 -20z"/>
<path d="M1990 1821 c0 -10 9 -21 19 -24 24 -6 31 0 31 25 0 13 -7 18 -25 18
-18 0 -25 -5 -25 -19z"/>
<path d="M6150 1955 c0 -18 5 -25 20 -25 15 0 20 7 20 25 0 18 -5 25 -20 25
-15 0 -20 -7 -20 -25z"/>
<path d="M6337 1973 c-15 -15 -7 -43 13 -43 15 0 20 7 20 25 0 24 -18 34 -33
18z"/>
<path d="M6567 1973 c-15 -15 -7 -43 13 -43 15 0 20 7 20 25 0 24 -18 34 -33
18z"/>
<path d="M6797 1973 c-15 -15 -7 -43 13 -43 15 0 20 7 20 25 0 24 -18 34 -33
18z"/>
<path d="M8527 1720 c3 -11 14 -20 24 -20 12 0 19 -7 19 -20 0 -13 7 -20 20
-20 13 0 20 7 20 20 0 13 -7 20 -20 20 -13 0 -20 7 -20 20 0 14 -7 20 -24 20
-19 0 -23 -4 -19 -20z"/>
<path d="M8480 1680 c0 -13 7 -20 20 -20 13 0 20 7 20 20 0 13 -7 20 -20 20
-13 0 -20 -7 -20 -20z"/>
<path d="M8437 1630 c3 -11 11 -20 18 -20 7 0 15 9 18 20 4 16 0 20 -18 20
-18 0 -22 -4 -18 -20z"/>
<path d="M8620 1630 c0 -17 7 -20 40 -20 33 0 40 3 40 20 0 17 -7 20 -40 20
-33 0 -40 -3 -40 -20z"/>
<path d="M8250 1583 c0 -20 -5 -23 -44 -23 -39 0 -45 -3 -48 -22 -2 -17 -9
-23 -25 -22 -18 0 -23 -5 -23 -23 0 -16 -6 -23 -19 -23 -17 0 -20 -8 -23 -47
-3 -41 -6 -48 -25 -51 -21 -3 -23 -9 -23 -68 0 -62 -1 -64 -25 -64 l-25 0 0
-275 c0 -267 -1 -275 -20 -275 -18 0 -20 -8 -22 -92 -3 -88 -4 -93 -25 -96
-23 -3 -23 -5 -23 -157 0 -152 0 -154 23 -157 14 -2 23 -11 25 -26 2 -14 10
-22 23 -22 17 0 19 -7 19 -69 l0 -68 45 -1 44 -1 3 67 c3 61 5 67 26 70 l22 3
-2 182 c-3 174 -4 182 -23 182 -19 0 -20 8 -23 138 l-3 137 26 0 c20 0 25 -5
25 -26 0 -25 2 -26 45 -22 41 3 45 1 45 -19 0 -22 4 -23 64 -23 59 0 65 -2 68
-22 3 -23 6 -23 166 -26 l162 -2 0 25 0 25 114 0 c110 0 115 1 118 22 3 18 10
22 48 22 39 1 45 4 48 24 3 18 10 22 42 22 32 0 39 -4 42 -22 2 -15 10 -23 23
-23 13 0 21 -8 23 -22 3 -17 10 -23 28 -23 23 0 24 -3 24 -70 0 -63 2 -70 20
-70 19 0 20 -7 20 -135 0 -128 -1 -135 -20 -135 -18 0 -20 -7 -20 -70 0 -68
-1 -70 -25 -70 -23 0 -25 4 -25 45 0 41 -2 45 -25 45 -23 0 -25 4 -25 45 0 38
-3 45 -20 45 -19 0 -20 -7 -20 -115 0 -108 1 -115 20 -115 17 0 20 -7 20 -45
l0 -45 185 0 185 1 0 45 c0 37 3 44 20 44 19 0 20 7 20 90 0 83 -1 90 -20 90
-13 0 -20 -7 -20 -20 0 -13 -7 -20 -20 -20 -14 0 -20 7 -20 21 0 12 8 23 20
26 11 3 20 14 20 24 0 12 -7 19 -20 19 -15 0 -20 -7 -20 -25 0 -20 -5 -25 -25
-25 l-25 0 0 114 c0 111 -1 115 -22 118 -22 3 -23 6 -26 141 l-3 137 -24 0
-25 0 0 115 c0 108 -1 115 -20 115 -19 0 -20 7 -20 134 0 132 0 135 -22 138
-21 3 -23 9 -26 70 -3 60 -5 67 -25 70 -16 2 -22 10 -21 26 0 17 -5 22 -23 22
-17 0 -23 6 -23 23 0 18 -5 23 -22 23 -18 -1 -23 4 -22 22 1 20 -4 22 -48 22
-43 0 -48 2 -48 23 0 22 -2 22 -110 19 -102 -3 -110 -5 -110 -23 0 -13 6 -19
18 -17 11 2 18 -4 20 -19 3 -22 8 -23 93 -23 88 0 89 0 89 -25 0 -20 5 -25 25
-25 20 0 25 -5 25 -25 0 -20 5 -25 25 -25 18 0 25 -5 25 -20 0 -13 7 -20 20
-20 19 0 20 -7 20 -115 l0 -115 25 0 c24 0 25 -2 25 -70 0 -68 -1 -70 -25 -70
-18 0 -25 -5 -25 -20 0 -13 -7 -20 -20 -20 -17 0 -20 -7 -20 -45 0 -41 -2 -45
-25 -45 -20 0 -25 -5 -25 -25 0 -23 -4 -25 -45 -25 -41 0 -45 -2 -45 -25 0
-23 -4 -25 -45 -25 -38 0 -45 -3 -45 -20 0 -18 -7 -20 -70 -20 -68 0 -70 -1
-70 -25 l0 -25 -160 0 -160 0 0 25 c0 23 -4 25 -45 25 -38 0 -45 3 -45 19 0
17 -8 20 -47 23 -41 3 -48 6 -51 26 -3 19 -9 22 -48 22 l-44 0 1 90 c1 88 1
90 25 90 17 0 24 -6 24 -20 0 -14 7 -20 23 -20 22 0 22 1 20 132 -2 126 -3
133 -22 136 -19 3 -21 10 -21 73 0 62 2 69 20 69 13 0 20 7 20 20 0 15 7 20
25 20 20 0 25 5 25 25 0 23 4 25 44 25 39 0 45 3 48 23 2 14 11 23 26 25 15 2
22 10 22 25 0 20 4 22 45 19 40 -4 45 -2 45 16 0 19 -7 21 -90 24 -88 3 -90 2
-90 -19z m-140 -368 c0 -20 -5 -25 -25 -25 -25 0 -25 -1 -25 -90 0 -90 0 -90
-25 -90 l-26 0 3 93 c3 87 4 92 26 95 14 2 22 10 22 23 0 14 7 19 25 19 20 0
25 -5 25 -25z m1283 -1005 c4 -16 0 -20 -19 -20 -17 0 -24 6 -24 20 0 13 7 20
19 20 10 0 21 -9 24 -20z"/>
<path d="M6050 1540 c0 -13 -7 -20 -20 -20 -15 0 -20 -7 -20 -25 0 -20 -5 -25
-26 -25 -24 0 -25 -3 -22 -42 2 -38 0 -43 -20 -46 -20 -3 -22 -9 -22 -73 0
-67 -1 -69 -25 -69 l-25 0 0 -275 0 -275 -25 0 c-25 0 -25 -1 -25 -90 0 -83
-1 -90 -20 -90 -19 0 -20 -7 -20 -160 0 -153 1 -160 20 -160 15 0 20 -7 20
-25 0 -20 5 -25 25 -25 24 0 25 -2 25 -70 l0 -71 138 3 137 3 3 228 2 227 -25
0 c-25 0 -25 0 -25 90 l0 90 45 0 c38 0 45 -3 45 -19 0 -13 8 -21 23 -23 14
-2 23 -11 25 -26 3 -22 5 -23 140 -20 129 3 137 4 137 23 0 17 8 20 46 23 41
3 46 6 42 23 -5 17 0 19 66 19 l71 0 0 -45 c0 -38 -3 -45 -20 -45 -19 0 -20
-7 -20 -115 l0 -115 -25 0 -25 0 0 -160 0 -160 345 0 345 0 0 44 c0 39 3 45
23 48 21 3 22 8 25 91 l3 87 -26 0 c-20 0 -25 5 -25 25 0 33 -37 35 -42 3 -2
-15 -10 -23 -23 -23 -19 0 -20 8 -23 118 l-3 117 -24 0 -25 0 0 135 c0 128 -1
135 -20 135 -18 0 -20 8 -22 113 -3 108 -4 112 -25 115 -23 3 -23 6 -23 143 0
132 -1 139 -20 139 -18 0 -20 7 -20 65 0 63 -1 65 -25 65 -20 0 -25 5 -25 24
0 18 -6 25 -22 28 -15 2 -24 11 -26 26 -2 14 -10 22 -23 22 -12 0 -19 7 -19
20 0 18 -7 20 -70 20 -63 0 -70 -2 -70 -20 0 -19 -7 -20 -204 -20 -205 0 -205
0 -208 -22 -2 -15 -11 -24 -25 -26 -17 -3 -23 -10 -23 -28 0 -17 -5 -24 -20
-24 -13 0 -20 -7 -20 -20 0 -17 -7 -20 -50 -20 -43 0 -50 3 -50 19 0 13 8 21
23 23 19 3 22 9 22 48 0 39 -3 45 -22 48 -15 2 -23 10 -23 23 0 17 -8 19 -70
19 -63 0 -70 -2 -70 -20z m140 -320 c0 -15 7 -20 25 -20 25 0 25 0 25 -95 0
-95 0 -95 -25 -95 -20 0 -25 -5 -25 -25 0 -25 -1 -25 -90 -25 -89 0 -90 0 -90
25 0 20 -5 25 -25 25 l-26 0 3 93 c3 87 4 92 26 95 14 2 22 10 22 23 0 17 8
19 90 19 83 0 90 -1 90 -20z m600 1 c0 -13 8 -21 23 -23 21 -3 22 -7 22 -93 0
-85 -1 -90 -22 -93 -14 -2 -23 -11 -25 -25 -3 -21 -8 -22 -93 -22 -86 0 -90 1
-93 23 -2 14 -10 22 -23 22 -17 0 -19 8 -19 95 0 88 1 95 20 95 13 0 20 7 20
20 0 19 7 20 95 20 87 0 95 -2 95 -19z m-368 -233 c2 -15 11 -24 26 -26 14 -2
22 -10 22 -23 0 -12 7 -19 19 -19 13 0 21 -8 23 -22 2 -15 11 -24 26 -26 14
-2 22 -10 22 -23 0 -16 -7 -19 -45 -19 -41 0 -45 -2 -45 -25 l0 -25 -114 0
c-111 0 -115 1 -118 23 -2 18 -10 23 -45 25 -38 3 -43 6 -43 27 0 18 4 22 20
18 16 -4 20 0 20 21 0 25 3 26 50 26 46 0 50 2 50 24 0 17 5 23 17 22 12 0 19
7 21 22 3 19 9 22 47 22 38 0 44 -3 47 -22z m918 -738 c0 -13 -7 -20 -20 -20
-13 0 -20 7 -20 20 0 13 7 20 20 20 13 0 20 -7 20 -20z m-44 -42 c2 -13 -5
-18 -22 -18 -23 0 -32 18 -17 34 12 12 36 2 39 -16z"/>
<path d="M6057 1193 c-4 -3 -7 -15 -7 -25 0 -11 -7 -18 -20 -18 -15 0 -20 -7
-20 -25 0 -23 4 -25 45 -25 l45 0 0 50 c0 42 -3 50 -18 50 -10 0 -22 -3 -25
-7z"/>
<path d="M6650 1175 c0 -20 -5 -25 -26 -25 -21 0 -25 -4 -22 -22 3 -20 10 -23
51 -26 l47 -3 0 50 c0 48 -2 51 -25 51 -20 0 -25 -5 -25 -25z"/>
<path d="M8250 1105 c0 -128 1 -135 20 -135 13 0 20 7 20 20 0 15 7 20 25 20
25 0 25 1 25 90 0 89 0 90 -25 90 -20 0 -25 5 -25 25 0 18 -5 25 -20 25 -19 0
-20 -7 -20 -135z"/>
<path d="M8708 1218 c-2 -15 -11 -24 -25 -26 -22 -3 -23 -8 -23 -93 0 -88 0
-89 25 -89 18 0 25 -5 25 -20 0 -13 7 -20 20 -20 19 0 20 7 20 135 0 127 -1
135 -19 135 -13 0 -21 -8 -23 -22z"/>
<path d="M8850 1106 c0 -127 1 -136 19 -136 14 0 18 5 14 20 -4 16 0 20 21 20
l26 0 0 89 c0 85 -1 90 -22 93 -15 2 -23 10 -23 23 0 11 -8 21 -18 23 -15 3
-17 -8 -17 -132z"/>
<path d="M4020 1149 l0 -50 48 3 c40 3 47 6 50 26 3 18 -1 22 -22 22 -21 0
-26 5 -26 25 0 20 -5 25 -25 25 -23 0 -25 -3 -25 -51z"/>
<path d="M4620 1151 l0 -51 45 0 c41 0 45 2 45 25 0 18 -5 25 -19 25 -13 0
-21 8 -23 23 -2 14 -11 23 -25 25 -21 3 -23 0 -23 -47z"/>
<path d="M4300 990 c0 -17 7 -20 40 -20 33 0 40 3 40 20 0 17 -7 20 -40 20
-33 0 -40 -3 -40 -20z"/>
<path d="M8430 991 c0 -13 -8 -21 -22 -23 -15 -2 -24 -11 -26 -25 -3 -20 -9
-23 -48 -23 -37 0 -44 -3 -44 -19 0 -13 -8 -21 -22 -23 -17 -2 -23 -10 -23
-28 0 -22 5 -25 43 -28 34 -3 42 -7 42 -23 0 -18 8 -19 120 -19 113 0 120 1
120 20 0 17 7 20 45 20 43 0 45 1 45 30 0 23 -4 30 -20 30 -13 0 -20 7 -20 20
0 15 -7 20 -25 20 -20 0 -25 5 -25 25 0 20 -5 25 -25 25 -18 0 -25 5 -25 20 0
17 -7 20 -45 20 -38 0 -45 -3 -45 -19z m50 -52 c0 -14 -7 -19 -25 -19 -18 0
-25 -5 -25 -20 0 -13 -7 -20 -20 -20 -13 0 -20 7 -20 20 0 13 7 20 20 20 13 0
20 7 20 19 0 11 8 21 18 24 24 5 32 -1 32 -24z"/>
<path d="M4257 940 c7 -25 36 -23 41 3 3 12 -3 17 -21 17 -20 0 -24 -4 -20
-20z"/>
<path d="M4390 946 c0 -7 9 -16 20 -19 15 -4 20 0 20 14 0 12 -7 19 -20 19
-11 0 -20 -6 -20 -14z"/>
<path d="M4210 895 c0 -19 -5 -25 -23 -25 -16 0 -23 -6 -23 -20 0 -17 7 -20
43 -20 l43 0 0 45 c0 38 -3 45 -20 45 -15 0 -20 -7 -20 -25z"/>
<path d="M4440 900 c0 -13 7 -20 20 -20 25 0 36 -25 20 -45 -10 -12 -36 -15
-115 -15 -82 0 -104 -3 -109 -15 -5 -13 11 -15 109 -15 108 0 115 1 115 20 0
17 7 20 45 20 38 0 45 3 45 20 0 15 -7 20 -25 20 -20 0 -25 5 -25 25 0 23 -4
25 -40 25 -33 0 -40 -3 -40 -20z"/>
<path d="M8990 506 c-1 -3 -1 -45 -1 -93 -1 -79 1 -88 18 -88 16 0 18 9 18 90
0 77 -2 90 -17 93 -10 2 -18 1 -18 -2z"/>
</g>
</svg>
